# xmcd CD database file
#
# Track frame offsets:
#	150
#	12226
#	28626
#	39742
#	53504
#	67196
#	82595
#	98095
#	110418
#	122431
#	132779
#	145865
#	158446
#	205636
#	236028
#	279687
#	290944
#	301473
#	315662
#	328353
#
# Disc length: 4560 seconds
#
# Revision: 0
# Processed by: cddbd v1.5.2PL0 Copyright (c) Steve Scherf et al.
# Submitted via: CDex 1.51
#
DISCID=1811ce14
DTITLE=Shorty Rogers - West Coast Jazz - Modern Sounds
DYEAR=2005
DGENRE=Jazz
TTITLE0=Heat Wave
TTITLE1=Everything I've Got
TTITLE2=You Stepped Out of a Dream
TTITLE3=It Only Happens When I Dance With You
TTITLE4=General Cluster
TTITLE5=Some Antics
TTITLE6=Claudia
TTITLE7=40 Degrees Below
TTITLE8=Joycycle
TTITLE9=The Lady Is a Tramp
TTITLE10=The Goof and I
TTITLE11=My Little Suede Shoes
TTITLE12=Cool Sunshine
TTITLE13=Loki
TTITLE14=Elaine's Lullaby
TTITLE15=It's Delovely
TTITLE16=Call for Cole
TTITLE17=You Do Something to Me
TTITLE18=Porterhouse
TTITLE19=Lullaby of Birdland
EXTD=YEAR: 2005
EXTT0=
EXTT1=
EXTT2=
EXTT3=
EXTT4=
EXTT5=
EXTT6=
EXTT7=
EXTT8=
EXTT9=
EXTT10=
EXTT11=
EXTT12=
EXTT13=
EXTT14=
EXTT15=
EXTT16=
EXTT17=
EXTT18=
EXTT19=
PLAYORDER=
